<svg width="600" height="600" viewBox="0 0 600 600" fill="none" xmlns="http://www.w3.org/2000/svg">
<rect width="600" height="600" fill="#1A5AFF"/>
<path d="M416.668 163C401.255 163 387.127 171.241 379.527 184.513L283.067 351.375H211.161V437H307.913C323.217 437 337.356 428.832 345.002 415.576L441.286 248.625H513V163H416.668Z" fill="white"/>
<path d="M161.389 437L87 394.295L208.271 184.513C215.87 171.241 229.999 163 245.412 163H341.744V248.625H270.03L161.389 437Z" fill="white"/>
<path d="M470.186 385.625C493.831 385.625 513 366.457 513 342.812C513 319.168 493.831 300 470.186 300C446.54 300 427.372 319.168 427.372 342.812C427.372 366.457 446.54 385.625 470.186 385.625Z" fill="white"/>
<path d="M91.2814 163V248.625C138.591 248.625 176.91 210.308 176.91 163H91.2814Z" fill="white"/>
</svg>
