<svg width="400" height="400" viewBox="0 0 400 400" fill="none" xmlns="http://www.w3.org/2000/svg">
<rect width="400" height="400" fill="white"/>
<rect width="400" height="400" fill="white"/>
<path d="M10 200V400H200H390V200V-5.96046e-06H200H10V200ZM217.2 71.4C219.4 72.2 220 78.6 220 100.2V128.2L200.6 127.6L181 127L180.4 99.6L179.8 72.2L188.4 70.2C196.4 68.4 211 69 217.2 71.4ZM142 104V128H122H101.8L102.4 107.6L103 87.2L119 83.8C144.4 78.4 142 76.4 142 104ZM278.2 84C287.2 86 295 88.2 295.4 88.8C296 89.2 296.8 95.2 297.4 102C298.4 111.4 298 114.8 295.8 116.2C293.8 117.4 293.8 118 295.6 118C296.8 118 298 119.8 298 122C298 125.6 296.6 126 283.6 126.2C275.6 126.2 267 126.6 264.6 127.2C260 128 260 127.8 260 104C260 90.8 260.4 80 260.8 80C261.4 80 269.2 81.8 278.2 84ZM182 214C182 266.8 181.4 282.4 179.6 283C178.2 283.4 169.2 284.2 159.6 285L142 286V245.6V205H151.4H161V196V187L151.6 186.4L142 185.8V165.8V146H162H182V214ZM259.6 166.4L260.2 186H250H240V196V206H250H260L259.8 216.4C259.2 238.4 254.8 247.2 232.6 269.4C227.8 274.2 223.8 279.2 223.8 280.4C223.6 281.8 222.8 280.2 222 277C221.2 273.6 220.4 242.8 220.2 208.4L220 145.8L239.6 146.4L259 147L259.6 166.4ZM119.4 314.4C122 317.8 122.2 332.4 119.6 335.4C118.4 336.8 114.4 338 110.8 338H104V325V312H110.8C114.4 312 118.4 313.2 119.4 314.4ZM150.6 324.2C152.6 331 153.6 337 152.8 337.8C152 338.4 151 337.8 150.6 336.4C149.4 333.4 141.6 333.2 138.4 336.4C134.2 340.6 133.6 336.4 137 325.6C141.4 312.6 141.6 312 144.6 312C146 312 148.6 317.6 150.6 324.2ZM182.8 316.4C183.8 318.2 184.2 320.6 183.2 321.4C182.4 322.2 180.8 321.4 179.8 319.4C177.6 315.8 173 314.8 171.2 317.8C170.6 318.8 173.2 321.6 177.2 323.8C182.4 327 184.2 329.2 183.6 332.6C183 336.4 181.8 337 175 337C168.2 337 167 336.4 166.4 332.4C165.6 327.4 169 326.4 170.8 331C172 334.2 177.2 335 178.8 332.2C179.4 331.2 176.8 328.6 173 326.2C169.2 324 166 321 166 319.4C166 312 178.6 309.6 182.8 316.4ZM214 314C214 315 212.6 316 211 316C208.6 316 208 318.6 208 327.2C208 341.8 203.2 341.2 202.4 326.4C202 319 201 316 198.8 316C197.4 316 196 315 196 314C196 312.8 200 312 205 312C210 312 214 312.8 214 314ZM234 325C234 335.2 233.4 338 231 338C228.6 338 228 335.2 228 325C228 314.8 228.6 312 231 312C233.4 312 234 314.8 234 325ZM263.6 314.4C265 315.8 266 320.4 266 325C266 334.2 263.4 338 257 338C250.6 338 248 334.2 248 325C248 315.8 250.6 312 257 312C259.4 312 262.2 313 263.6 314.4ZM290.8 320.4L295.8 329L296 320.4C296 315.8 297 312 298 312C299.2 312 300 317.6 300 325C300 332.6 299.2 338 298 338C296.8 338 293.8 334.6 291.4 330.4L287 323L286.4 330.4C286 335.4 284.8 338 282.8 338C280.6 338 280 335 280 325C280 309.2 283.2 308 290.8 320.4Z" fill="black"/>
<path d="M108 319C108 320.6 109.8 322 112 322C114.2 322 116 320.6 116 319C116 317.4 114.2 316 112 316C109.8 316 108 317.4 108 319Z" fill="black"/>
<path d="M109.4 327.4C106.6 330 108 334 111.6 334C116.8 334 118.4 331.8 115.8 328.6C113.2 325.8 111.4 325.4 109.4 327.4Z" fill="black"/>
<path d="M141.4 326C140.6 329 141.4 330 144 330C146.6 330 147.4 329 146.6 326C146 323.8 144.8 322 144 322C143.2 322 142 323.8 141.4 326Z" fill="black"/>
<path d="M252.8 318.6C252.2 320.4 252 324.2 252.4 327.4C252.8 331.4 254 333 257 333C260.4 333 261 331.6 261 325C261 319 260.2 316.8 257.4 316.4C255.6 316 253.4 317 252.8 318.6Z" fill="black"/>
<rect width="11" height="400" fill="black"/>
<rect x="389" width="11" height="400" fill="black"/>
</svg>
