<?xml version="1.0" standalone="no"?>
<!DOCTYPE svg PUBLIC "-//W3C//DTD SVG 20010904//EN"
 "http://www.w3.org/TR/2001/REC-SVG-20010904/DTD/svg10.dtd">
<svg version="1.0" xmlns="http://www.w3.org/2000/svg"
 width="200.000000pt" height="200.000000pt" viewBox="0 0 200.000000 200.000000"
 preserveAspectRatio="xMidYMid meet">

<g transform="translate(0.000000,200.000000) scale(0.100000,-0.100000)"
fill="#000000" stroke="none">
<path d="M50 1000 l0 -1000 950 0 950 0 0 1000 0 1000 -950 0 -950 0 0 -1000z
m1036 643 c11 -4 14 -36 14 -144 l0 -140 -97 3 -98 3 -3 137 -3 137 43 10 c40
9 113 6 144 -6z m-376 -163 l0 -120 -100 0 -101 0 3 102 3 102 80 17 c127 27
115 37 115 -101z m681 100 c45 -10 84 -21 86 -24 3 -2 7 -32 10 -66 5 -47 3
-64 -8 -71 -10 -6 -10 -9 -1 -9 6 0 12 -9 12 -20 0 -18 -7 -20 -72 -21 -40 0
-83 -2 -95 -5 -23 -4 -23 -3 -23 116 0 66 2 120 4 120 3 0 42 -9 87 -20z
m-481 -650 c0 -264 -3 -342 -12 -345 -7 -2 -52 -6 -100 -10 l-88 -5 0 202 0
203 47 0 48 0 0 45 0 45 -47 3 -48 3 0 100 0 99 100 0 100 0 0 -340z m388 238
l3 -98 -51 0 -50 0 0 -50 0 -50 50 0 50 0 -1 -52 c-3 -110 -25 -154 -136 -265
-24 -24 -44 -49 -44 -55 -1 -7 -5 1 -9 17 -4 17 -8 171 -9 343 l-1 313 98 -3
97 -3 3 -97z m-701 -740 c13 -17 14 -90 1 -105 -6 -7 -26 -13 -44 -13 l-34 0
0 65 0 65 34 0 c18 0 38 -6 43 -12z m156 -49 c10 -34 15 -64 11 -68 -4 -3 -9
0 -11 7 -6 15 -45 16 -61 0 -21 -21 -24 0 -7 54 22 65 23 68 38 68 7 0 20 -28
30 -61z m161 39 c5 -9 7 -21 2 -25 -4 -4 -12 0 -17 10 -11 18 -34 23 -43 8 -3
-5 10 -19 30 -30 26 -16 35 -27 32 -44 -3 -19 -9 -22 -43 -22 -34 0 -40 3 -43
23 -4 25 13 30 22 7 6 -16 32 -20 40 -6 3 5 -10 18 -29 30 -19 11 -35 26 -35
34 0 37 63 49 84 15z m156 12 c0 -5 -7 -10 -15 -10 -12 0 -15 -13 -15 -56 0
-73 -24 -70 -28 4 -2 37 -7 52 -18 52 -7 0 -14 5 -14 10 0 6 20 10 45 10 25 0
45 -4 45 -10z m100 -55 c0 -51 -3 -65 -15 -65 -12 0 -15 14 -15 65 0 51 3 65
15 65 12 0 15 -14 15 -65z m148 53 c7 -7 12 -30 12 -53 0 -46 -13 -65 -45 -65
-32 0 -45 19 -45 65 0 46 13 65 45 65 12 0 26 -5 33 -12z m136 -30 l25 -43 1
43 c0 23 5 42 10 42 6 0 10 -28 10 -65 0 -38 -4 -65 -10 -65 -6 0 -21 17 -33
38 l-22 37 -3 -37 c-2 -25 -8 -38 -18 -38 -11 0 -14 15 -14 65 0 79 16 85 54
23z"/>
<path d="M540 405 c0 -8 9 -15 20 -15 11 0 20 7 20 15 0 8 -9 15 -20 15 -11 0
-20 -7 -20 -15z"/>
<path d="M547 363 c-14 -13 -7 -33 11 -33 26 0 34 11 21 27 -13 14 -22 16 -32
6z"/>
<path d="M707 370 c-4 -15 0 -20 13 -20 13 0 17 5 13 20 -3 11 -9 20 -13 20
-4 0 -10 -9 -13 -20z"/>
<path d="M1264 407 c-3 -9 -4 -28 -2 -44 2 -20 8 -28 23 -28 17 0 20 7 20 40
0 30 -4 41 -18 43 -9 2 -20 -3 -23 -11z"/>
</g>
</svg>
