<?xml version="1.0" standalone="no"?>
<!DOCTYPE svg PUBLIC "-//W3C//DTD SVG 20010904//EN"
 "http://www.w3.org/TR/2001/REC-SVG-20010904/DTD/svg10.dtd">
<svg version="1.0" xmlns="http://www.w3.org/2000/svg"
 width="400.000000pt" height="400.000000pt" viewBox="0 0 400.000000 400.000000"
 preserveAspectRatio="xMidYMid meet">
<metadata>
Created by potrace 1.16, written by Peter Selinger 2001-2019
</metadata>
<g transform="translate(0.000000,400.000000) scale(0.100000,-0.100000)"
fill="#000000" stroke="none">
<path d="M570 2005 l0 -1045 225 0 225 0 0 1045 0 1045 -225 0 -225 0 0 -1045z"/>
<path d="M1555 3040 c-3 -6 -4 -44 -1 -85 l6 -76 120 -157 c67 -86 167 -218
223 -292 57 -74 175 -229 263 -345 88 -115 239 -313 335 -440 97 -126 215
-282 264 -345 48 -63 126 -166 173 -227 l84 -113 194 0 194 0 0 1045 0 1045
-225 0 -225 0 0 -641 c0 -385 -4 -638 -9 -635 -5 4 -99 124 -208 267 -109 144
-238 314 -288 379 -49 64 -178 233 -285 374 l-194 256 -208 0 c-128 0 -209 -4
-213 -10z"/>
<path d="M1923 2162 c-45 -59 -147 -192 -227 -296 l-144 -190 -1 -292 c-1
-161 1 -322 5 -358 l7 -66 223 0 224 0 0 655 c0 360 -1 655 -2 655 -2 0 -40
-48 -85 -108z"/>
</g>
</svg>
