<?xml version="1.0" standalone="no"?>
<!DOCTYPE svg PUBLIC "-//W3C//DTD SVG 20010904//EN"
 "http://www.w3.org/TR/2001/REC-SVG-20010904/DTD/svg10.dtd">
<svg version="1.0" xmlns="http://www.w3.org/2000/svg"
 width="256.000000pt" height="256.000000pt" viewBox="0 0 256.000000 256.000000"
 preserveAspectRatio="xMidYMid meet">
<metadata>
Created by potrace 1.16, written by Peter Selinger 2001-2019
</metadata>
<g transform="translate(0.000000,256.000000) scale(0.100000,-0.100000)"
fill="#000000" stroke="none">
<path d="M46 2171 c-19 -21 -19 -22 9 -88 22 -53 43 -83 96 -135 111 -109 262
-180 512 -242 70 -18 129 -36 130 -42 1 -5 -79 -21 -178 -35 -320 -46 -445
-80 -512 -142 -40 -36 -29 -105 26 -153 42 -38 93 -47 221 -41 182 10 521 101
614 165 49 33 147 133 189 190 17 23 39 42 49 42 17 0 18 -33 20 -716 l3 -716
24 -19 c30 -24 62 -24 92 0 l24 19 3 716 c2 691 3 716 21 716 10 0 27 -12 37
-27 39 -61 150 -172 213 -213 49 -33 171 -73 366 -121 112 -28 149 -32 265
-33 125 -1 138 1 173 22 62 39 85 111 51 160 -41 58 -209 108 -504 148 -173
23 -224 36 -189 48 8 3 68 19 135 35 340 84 548 218 610 394 13 36 12 43 -2
65 -16 24 -19 24 -103 19 -126 -7 -281 -52 -676 -196 -374 -135 -367 -134
-385 -102 -13 25 -13 111 0 111 20 0 50 45 50 76 0 87 -160 125 -241 57 -40
-34 -40 -82 1 -116 23 -20 30 -34 30 -61 0 -78 -30 -103 -92 -76 -43 18 -377
139 -520 189 -219 75 -363 113 -458 118 -77 5 -87 3 -104 -16z"/>
</g>
</svg>
